<?xml version="1.0" encoding="iso-8859-1"?>
<!-- Generator: Adobe Illustrator 19.0.0, SVG Export Plug-In . SVG Version: 6.00 Build 0)  -->
<svg version="1.1" id="Capa_1" xmlns="http://www.w3.org/2000/svg" xmlns:xlink="http://www.w3.org/1999/xlink" x="0px" y="0px"
	 viewBox="0 0 512 512" style="enable-background:new 0 0 512 512;" xml:space="preserve">
<circle style="fill:#75DC5E;" cx="349.25" cy="447.08" r="46.813"/>
<path style="fill:#2AAD52;" d="M367.411,403.923c8.474,8.472,13.715,20.177,13.715,33.105c0,25.854-20.959,46.813-46.813,46.813
	c-6.44,0-12.576-1.302-18.161-3.655c8.471,8.469,20.173,13.708,33.098,13.708c25.854,0,46.813-20.959,46.813-46.813
	C396.065,427.668,384.247,411.015,367.411,403.923z"/>
<path style="fill:#EBEAE6;" d="M136.97,0h307.783c17.049,0,30.87,13.821,30.87,30.87v181.663c0,17.049-13.821,30.87-30.87,30.87
	H136.97c-17.049,0-30.87-13.821-30.87-30.87V30.87C106.1,13.821,119.921,0,136.97,0z"/>
<path style="fill:#C9C5B5;" d="M444.752,0h-24.724c17.049,0,30.87,13.821,30.87,30.87v181.663c0,17.049-13.821,30.87-30.87,30.87
	h24.724c17.049,0,30.87-13.821,30.87-30.87V30.87C475.622,13.821,461.801,0,444.752,0z"/>
<path style="fill:#FFCCAA;" d="M216.365,40.823L216.365,40.823c-17.393,0-31.493,14.1-31.493,31.493v14.792
	c0,17.393,14.1,31.493,31.493,31.493l0,0c17.393,0,31.493-14.1,31.493-31.493V72.316C247.858,54.923,233.758,40.823,216.365,40.823z
	"/>
<path style="fill:#FF5A59;" d="M269.433,202.579H163.297l4.015-34.728c1.759-15.215,14.642-26.693,29.962-26.693h38.182
	c15.319,0,28.203,11.478,29.962,26.693L269.433,202.579z"/>
<g>
	<path style="fill:#CE3A4C;" d="M197.351,202.579v-26.42c0-4.142-3.358-7.5-7.5-7.5s-7.5,3.358-7.5,7.5v26.42H197.351z"/>
	<path style="fill:#CE3A4C;" d="M250.38,176.159c0-4.142-3.358-7.5-7.5-7.5s-7.5,3.358-7.5,7.5v26.42h15V176.159z"/>
</g>
<path style="fill:#D7875F;" d="M365.357,40.823L365.357,40.823c-17.393,0-31.493,14.1-31.493,31.493v14.792
	c0,17.393,14.1,31.493,31.493,31.493l0,0c17.393,0,31.493-14.1,31.493-31.493V72.316C396.85,54.923,382.75,40.823,365.357,40.823z"
	/>
<path style="fill:#2BB4F3;" d="M418.424,202.579H312.289l4.015-34.728c1.759-15.215,14.642-26.693,29.962-26.693h38.182
	c15.319,0,28.203,11.478,29.962,26.693L418.424,202.579z"/>
<g>
	<path style="fill:#1687C4;" d="M346.342,202.579v-26.42c0-4.142-3.358-7.5-7.5-7.5s-7.5,3.358-7.5,7.5v26.42H346.342z"/>
	<path style="fill:#1687C4;" d="M399.372,176.159c0-4.142-3.358-7.5-7.5-7.5s-7.5,3.358-7.5,7.5v26.42h15V176.159z"/>
</g>
<g>
	<path style="fill:#8BA7BC;" d="M349.252,381.524c-4.142,0-7.5-3.358-7.5-7.5v-5c0-4.142,3.358-7.5,7.5-7.5s7.5,3.358,7.5,7.5v5
		C356.752,378.167,353.394,381.524,349.252,381.524z"/>
	<path style="fill:#8BA7BC;" d="M349.252,351.558c-4.142,0-7.5-3.358-7.5-7.5v-8.322c0-4.142,3.358-7.5,7.5-7.5s7.5,3.358,7.5,7.5
		v8.322C356.752,348.2,353.394,351.558,349.252,351.558z M349.252,318.27c-4.142,0-7.5-3.358-7.5-7.5v-8.322
		c0-4.142,3.358-7.5,7.5-7.5s7.5,3.358,7.5,7.5v8.322C356.752,314.912,353.394,318.27,349.252,318.27z"/>
	<path style="fill:#8BA7BC;" d="M349.252,284.981c-4.142,0-7.5-3.358-7.5-7.5v-5c0-4.142,3.358-7.5,7.5-7.5s7.5,3.358,7.5,7.5v5
		C356.752,281.624,353.394,284.981,349.252,284.981z"/>
</g>
<path style="fill:#344968;" d="M366.454,439.582h-9.702v-9.702c0-4.142-3.358-7.5-7.5-7.5s-7.5,3.358-7.5,7.5v9.702h-9.702
	c-4.142,0-7.5,3.358-7.5,7.5s3.358,7.5,7.5,7.5h9.702v9.702c0,4.142,3.358,7.5,7.5,7.5s7.5-3.358,7.5-7.5v-9.702h9.702
	c4.142,0,7.5-3.358,7.5-7.5S370.596,439.582,366.454,439.582z"/>
<path style="fill:#2BB4F3;" d="M222.243,512H38.105l6.966-60.252c3.051-26.397,25.403-46.31,51.981-46.31h66.244
	c26.578,0,48.93,19.913,51.981,46.31L222.243,512z"/>
<g>
	<path style="fill:#1687C4;" d="M215.277,451.748c-3.051-26.397-25.403-46.31-51.981-46.31h-18.543
		c26.578,0,48.93,19.913,51.981,46.31L203.7,512h18.543L215.277,451.748z"/>
	<path style="fill:#1687C4;" d="M80.464,512v-45.838c0-4.142-3.358-7.5-7.5-7.5s-7.5,3.358-7.5,7.5V512H80.464z"/>
	<path style="fill:#1687C4;" d="M194.885,512v-45.838c0-4.142-3.358-7.5-7.5-7.5s-7.5,3.358-7.5,7.5V512H194.885z"/>
</g>
<path style="fill:#F2A077;" d="M106.1,365.29v48.526c0,13.296,10.778,24.074,24.074,24.074l0,0
	c13.296,0,24.074-10.778,24.074-24.074V365.29H106.1z"/>
<path style="fill:#475D6D;" d="M178.874,159.199h-50.543c-11.133,0-20.158,9.025-20.158,20.158l0,0c0,4.216-3.417,7.633-7.633,7.633
	h-7.191c-26.134,0-47.32,21.186-47.32,47.32v80.057h168.293v-54.039V234.31v-39.665
	C214.321,175.069,198.451,159.199,178.874,159.199z"/>
<path style="fill:#2C3F4F;" d="M178.874,159.199H154.8c19.577,0,35.447,15.87,35.447,35.447v39.665v26.018v54.039h24.074v-54.039
	V234.31v-39.665C214.321,175.068,198.451,159.199,178.874,159.199z"/>
<path style="fill:#FFCCAA;" d="M223.97,307.35v7.087c0,8.28-6.705,14.984-14.984,14.984h-14.753
	c-0.88,16.93-8.314,32.134-19.825,43.1c-11.51,10.966-27.085,17.694-44.235,17.694c-34.299,0-62.311-26.923-64.059-60.794H51.362
	c-8.28,0-14.984-6.705-14.984-14.984v-7.087c0-8.28,6.705-14.984,14.984-14.984h14.66v-25.649c0-23.252,18.852-42.092,42.093-42.092
	h0.127c1.135,19.917,17.636,35.7,37.831,35.7h47.767c0.324,2.084,0.486,4.215,0.486,6.392v25.649h14.66
	C217.266,292.366,223.97,299.071,223.97,307.35z"/>
<g>
	<path style="fill:#475D6D;" d="M130.174,354.995c-8.933,0-17.34-3.48-23.674-9.798c-3.204-3.204-5.676-6.934-7.355-11.094
		c-1.55-3.841,0.307-8.212,4.148-9.762c3.842-1.551,8.212,0.307,9.762,4.148c0.92,2.281,2.282,4.332,4.045,6.096
		c3.496,3.487,8.141,5.411,13.074,5.411c7.565,0,14.287-4.521,17.125-11.519c1.557-3.839,5.932-5.688,9.769-4.131
		c3.838,1.557,5.688,5.931,4.131,9.769C156.054,346.798,143.876,354.995,130.174,354.995z"/>
	<path style="fill:#475D6D;" d="M98.06,304.021c-4.142,0-7.5-3.358-7.5-7.5v-3.099c0-4.142,3.358-7.5,7.5-7.5s7.5,3.358,7.5,7.5
		v3.099C105.56,300.663,102.202,304.021,98.06,304.021z"/>
	<path style="fill:#475D6D;" d="M162.288,304.021c-4.142,0-7.5-3.358-7.5-7.5v-3.099c0-4.142,3.358-7.5,7.5-7.5s7.5,3.358,7.5,7.5
		v3.099C169.788,300.663,166.43,304.021,162.288,304.021z"/>
</g>
<g>
</g>
<g>
</g>
<g>
</g>
<g>
</g>
<g>
</g>
<g>
</g>
<g>
</g>
<g>
</g>
<g>
</g>
<g>
</g>
<g>
</g>
<g>
</g>
<g>
</g>
<g>
</g>
<g>
</g>
</svg>
